<svg id="Layer_1" data-name="Layer 1" xmlns="http://www.w3.org/2000/svg" viewBox="0 0 407.59 524.14"><defs><style>.cls-1{fill:#fff;}</style></defs><title>if</title><path class="cls-1" d="M144.54,409.44c0-28.47,0-32.12-19.71-45.26l-6.57-4.38c-2.92-2.92-2.92-11,.73-13.14,16.79-5.84,58.4-24.82,75.19-35.77,3.65,0,6.57,1.46,7.3,4.38-1.46,25.55-2.92,60.59-2.92,90.52v131.4c0,52.56,1.46,59.86,27.74,63.51l15.33,2.19c5.11,3.65,3.65,16.06-1.46,18.25-21.9-1.46-43.07-2.19-68.62-2.19-26.28,0-48.18.73-68.62,2.19-5.11-2.19-6.57-14.6-1.46-18.25l15.33-2.19c27-3.65,27.74-11,27.74-63.51Zm60.59-208c0,26.28-18.25,38-38.69,38-22.63,0-37.23-16.79-37.23-36.5,0-24.09,17.52-39.42,39.42-39.42S205.13,180.95,205.13,201.39Z" transform="translate(-98.29 -97)"/><path class="cls-1" d="M346.74,362c-12.41,0-12.41,1.46-12.41,21.17v154c0,52.56,1.46,61.32,27.74,63.51l26.28,2.19c5.11,3.65,3.65,16.06-1.46,18.25-32.85-1.46-54-2.19-79.57-2.19-26.28,0-48.18.73-70.08,2.19-5.11-2.19-6.57-14.6-1.46-18.25l16.79-2.19c27-3.65,27.74-11,27.74-63.51v-154c0-19.71,0-21.17-14.6-21.17H240.16c-4.38-2.92-5.11-9.49-2.19-13.87l31.39-15.33c5.84-2.92,10.95-7.3,10.95-14.6,0-42.34,5.11-87.6,22.63-128.48C321.19,148.1,362.07,97,434.34,97c38.69,0,71.54,17.52,71.54,43.8,0,14.6-13.87,26.28-27.74,26.28-8,0-12.41-2.92-17.52-8.76-13.87-16.06-34.31-32.12-58.4-32.12-22.63,0-40.88,13.87-51.83,40.15-13.14,33.58-16.06,86.87-16.06,123.37v21.17c0,19.71,0,20.44,12.41,20.44H430c8,7.3,2.92,27.74-5.11,30.66Z" transform="translate(-98.29 -97)"/></svg>